<svg width="27" height="27" viewBox="0 0 27 27" fill="none" xmlns="http://www.w3.org/2000/svg">
<path d="M14.7443 6.91675C14.7443 6.58523 14.6126 6.26729 14.3782 6.03286C14.1438 5.79844 13.8258 5.66675 13.4943 5.66675C13.1628 5.66675 12.8448 5.79844 12.6104 6.03286C12.376 6.26729 12.2443 6.58523 12.2443 6.91675V12.3334H6.82764C6.49612 12.3334 6.17817 12.4651 5.94375 12.6995C5.70933 12.934 5.57764 13.2519 5.57764 13.5834C5.57764 13.9149 5.70933 14.2329 5.94375 14.4673C6.17817 14.7017 6.49612 14.8334 6.82764 14.8334H12.2443V20.2501C12.2443 20.5816 12.376 20.8995 12.6104 21.134C12.8448 21.3684 13.1628 21.5001 13.4943 21.5001C13.8258 21.5001 14.1438 21.3684 14.3782 21.134C14.6126 20.8995 14.7443 20.5816 14.7443 20.2501V14.8334H20.161C20.4925 14.8334 20.8104 14.7017 21.0449 14.4673C21.2793 14.2329 21.411 13.9149 21.411 13.5834C21.411 13.2519 21.2793 12.934 21.0449 12.6995C20.8104 12.4651 20.4925 12.3334 20.161 12.3334H14.7443V6.91675Z" fill="black"/>
</svg>
