<svg width="92" height="25" viewBox="0 0 92 25" fill="none" xmlns="http://www.w3.org/2000/svg">
<path d="M25.5234 20.0957L31.2617 3.8584H35.1973L40.9482 20.0957H37.3428L36.251 16.7949H30.0938L29.0146 20.0957H25.5234ZM33.1787 7.47656L31.0332 14.002H35.3496L33.1787 7.47656Z" fill="black"/>
<path d="M43.8145 8.07324H46.8359V9.86328L47.0518 9.55859C47.8981 8.35677 49.0238 7.75586 50.4287 7.75586C51.9521 7.75586 53.1751 8.31868 54.0977 9.44434C55.0202 10.57 55.4814 12.0553 55.4814 13.9004C55.4814 15.847 55.0202 17.417 54.0977 18.6104C53.1751 19.8037 51.9521 20.4004 50.4287 20.4004C49.0322 20.4004 47.9066 19.8418 47.0518 18.7246L46.9883 18.6357V24.8057H43.8145V8.07324ZM49.5146 17.7979C50.361 17.7979 51.0254 17.4805 51.5078 16.8457C51.9902 16.2109 52.2314 15.3265 52.2314 14.1924C52.2314 13.0329 51.9902 12.1273 51.5078 11.4756C51.0339 10.8239 50.3737 10.498 49.5273 10.498C48.681 10.498 48.0208 10.8324 47.5469 11.501C47.0729 12.1696 46.8359 13.1006 46.8359 14.2939C46.8359 15.3942 47.0729 16.2533 47.5469 16.8711C48.0208 17.4889 48.6768 17.7979 49.5146 17.7979Z" fill="black"/>
<path d="M58.627 8.07324H61.6484V9.86328L61.8643 9.55859C62.7106 8.35677 63.8363 7.75586 65.2412 7.75586C66.7646 7.75586 67.9876 8.31868 68.9102 9.44434C69.8327 10.57 70.2939 12.0553 70.2939 13.9004C70.2939 15.847 69.8327 17.417 68.9102 18.6104C67.9876 19.8037 66.7646 20.4004 65.2412 20.4004C63.8447 20.4004 62.7191 19.8418 61.8643 18.7246L61.8008 18.6357V24.8057H58.627V8.07324ZM64.3271 17.7979C65.1735 17.7979 65.8379 17.4805 66.3203 16.8457C66.8027 16.2109 67.0439 15.3265 67.0439 14.1924C67.0439 13.0329 66.8027 12.1273 66.3203 11.4756C65.8464 10.8239 65.1862 10.498 64.3398 10.498C63.4935 10.498 62.8333 10.8324 62.3594 11.501C61.8854 12.1696 61.6484 13.1006 61.6484 14.2939C61.6484 15.3942 61.8854 16.2533 62.3594 16.8711C62.8333 17.4889 63.4893 17.7979 64.3271 17.7979Z" fill="black"/>
<path d="M73.6045 20.0957V3.8584H76.7656V20.0957H73.6045Z" fill="black"/>
<path d="M85.5732 20.4004C83.7451 20.4004 82.3359 19.8376 81.3457 18.7119C80.3555 17.5863 79.8604 15.9824 79.8604 13.9004C79.8604 11.9792 80.3639 10.4769 81.3711 9.39355C82.3783 8.30176 83.779 7.75586 85.5732 7.75586C87.4014 7.75586 88.8105 8.31022 89.8008 9.41895C90.791 10.5277 91.2861 12.1061 91.2861 14.1543C91.3031 14.3913 91.2861 14.6283 91.2354 14.8652H83.0469C83.123 15.8216 83.3346 16.5326 83.6816 16.998C84.1217 17.5905 84.8581 17.8867 85.8906 17.8867C86.3646 17.8867 86.8047 17.7513 87.2109 17.4805C87.6256 17.2096 87.8753 16.8796 87.96 16.4902H91.1846C90.9053 17.7174 90.2705 18.6781 89.2803 19.3721C88.29 20.0576 87.0544 20.4004 85.5732 20.4004ZM87.9854 12.8467C87.9176 12.1273 87.7272 11.5645 87.4141 11.1582C87.0078 10.625 86.3773 10.3584 85.5225 10.3584C84.71 10.3584 84.0879 10.6715 83.6562 11.2979C83.3939 11.6956 83.2035 12.2119 83.085 12.8467H87.9854Z" fill="black"/>
<path d="M18.1426 17.1447C17.8099 17.9133 17.4161 18.6208 16.9598 19.2713C16.3379 20.158 15.8286 20.7719 15.4362 21.1127C14.8278 21.6722 14.176 21.9587 13.478 21.975C12.9769 21.975 12.3726 21.8324 11.6691 21.5432C10.9634 21.2553 10.3148 21.1127 9.72179 21.1127C9.09983 21.1127 8.43279 21.2553 7.71931 21.5432C7.00474 21.8324 6.42909 21.9832 5.98897 21.9981C5.31962 22.0266 4.65244 21.7319 3.98649 21.1127C3.56144 20.742 3.02979 20.1064 2.3929 19.2061C1.70956 18.2446 1.14777 17.1297 0.707644 15.8587C0.236289 14.4857 0 13.1563 0 11.8692C0 10.3948 0.318582 9.12321 0.956698 8.0576C1.4582 7.20166 2.12538 6.52647 2.9604 6.03081C3.79542 5.53514 4.69766 5.28256 5.6693 5.2664C6.20095 5.2664 6.89814 5.43085 7.76453 5.75405C8.62848 6.07834 9.18321 6.24279 9.42642 6.24279C9.60826 6.24279 10.2245 6.0505 11.2692 5.66714C12.2571 5.31162 13.0909 5.16441 13.774 5.2224C15.6249 5.37178 17.0155 6.10142 17.9403 7.41595C16.2849 8.41896 15.466 9.82379 15.4823 11.626C15.4973 13.0297 16.0065 14.1979 17.0074 15.1254C17.4609 15.5558 17.9674 15.8885 18.531 16.1248C18.4088 16.4793 18.2798 16.8188 18.1426 17.1447ZM13.8976 0.440125C13.8976 1.54038 13.4956 2.56768 12.6944 3.51854C11.7275 4.64892 10.558 5.30211 9.28981 5.19904C9.27365 5.06705 9.26428 4.92812 9.26428 4.78214C9.26428 3.7259 9.72409 2.59552 10.5406 1.67127C10.9483 1.20331 11.4668 0.814209 12.0955 0.503814C12.7229 0.19805 13.3164 0.0289566 13.8745 0C13.8908 0.147086 13.8976 0.294196 13.8976 0.440125Z" fill="black"/>
</svg>
