<svg width="22" height="22" viewBox="0 0 22 22" fill="none" xmlns="http://www.w3.org/2000/svg">
<path d="M9.96753 0.276611H11.4675V4.02661H9.96753V0.276611ZM14.9835 5.45161L17.613 2.82211L18.6735 3.88261L16.044 6.51211L14.9835 5.45161ZM17.4675 10.0266H21.2175V11.5266H17.4675V10.0266ZM14.9835 16.1016L16.044 15.0419L18.6735 17.6714L17.613 18.7319L14.9835 16.1016ZM9.96753 17.5266H11.4675V21.2766H9.96753V17.5266ZM2.76303 17.6706L5.39253 15.0411L6.45303 16.1016L3.82428 18.7311L2.76303 17.6706ZM0.217529 10.0266H3.96753V11.5266H0.217529V10.0266ZM2.76378 3.88261L3.82428 2.82211L6.45378 5.45161L5.39253 6.51211L2.76378 3.88261ZM10.7175 6.27661C9.82751 6.27661 8.95748 6.54053 8.21746 7.035C7.47744 7.52946 6.90067 8.23227 6.56007 9.05454C6.21948 9.8768 6.13036 10.7816 6.304 11.6545C6.47763 12.5274 6.90621 13.3293 7.53555 13.9586C8.16489 14.5879 8.96671 15.0165 9.83962 15.1901C10.7125 15.3638 11.6173 15.2747 12.4396 14.9341C13.2619 14.5935 13.9647 14.0167 14.4591 13.2767C14.9536 12.5367 15.2175 11.6666 15.2175 10.7766C15.2175 9.58314 14.7434 8.43854 13.8995 7.59463C13.0556 6.75072 11.911 6.27661 10.7175 6.27661Z" fill="#115172"/>
</svg>
