<svg width="22" height="33" viewBox="0 0 22 33" fill="none" xmlns="http://www.w3.org/2000/svg">
<path d="M7.09293 10.5625C7.09293 9.61767 7.47809 8.71153 8.16368 8.04343C8.84927 7.37533 9.77912 7 10.7487 7C11.7183 7 12.6481 7.37533 13.3337 8.04343C14.0193 8.71153 14.4045 9.61767 14.4045 10.5625M7.09293 10.5625H14.4045M7.09293 10.5625H3.43717M14.4045 10.5625H18.0602M3.43717 10.5625H1M3.43717 10.5625V23.625C3.43717 24.2549 3.69395 24.859 4.151 25.3044C4.60806 25.7498 5.22797 26 5.87435 26H15.623C16.2694 26 16.8893 25.7498 17.3464 25.3044C17.8034 24.859 18.0602 24.2549 18.0602 23.625V10.5625M18.0602 10.5625H20.4974" stroke="#687684" stroke-width="2" stroke-linecap="round" stroke-linejoin="round"/>
</svg>
