<svg width="23" height="29" viewBox="0 0 23 29" fill="none" xmlns="http://www.w3.org/2000/svg">
<path d="M11.6674 7.39062C12.2887 7.39062 12.7924 6.88695 12.7924 6.26562C12.7924 5.6443 12.2887 5.14062 11.6674 5.14062C11.046 5.14062 10.5424 5.6443 10.5424 6.26562C10.5424 6.88695 11.046 7.39062 11.6674 7.39062Z" stroke="#687684" stroke-width="1.5" stroke-linecap="round" stroke-linejoin="round"/>
<path d="M11.6674 15.6406C12.2887 15.6406 12.7924 15.1369 12.7924 14.5156C12.7924 13.8943 12.2887 13.3906 11.6674 13.3906C11.046 13.3906 10.5424 13.8943 10.5424 14.5156C10.5424 15.1369 11.046 15.6406 11.6674 15.6406Z" stroke="#687684" stroke-width="1.5" stroke-linecap="round" stroke-linejoin="round"/>
<path d="M11.6674 23.8906C12.2887 23.8906 12.7924 23.3869 12.7924 22.7656C12.7924 22.1443 12.2887 21.6406 11.6674 21.6406C11.046 21.6406 10.5424 22.1443 10.5424 22.7656C10.5424 23.3869 11.046 23.8906 11.6674 23.8906Z" stroke="#687684" stroke-width="1.5" stroke-linecap="round" stroke-linejoin="round"/>
</svg>
