<svg width="85" height="27" viewBox="0 0 85 27" fill="none" xmlns="http://www.w3.org/2000/svg">
<path d="M82.3524 16.5009L84.7105 18.0227C83.9452 19.114 82.1147 20.9863 78.9499 20.9863C75.02 20.9863 72.0933 18.0428 72.0933 14.2983C72.0933 10.3137 75.051 7.6105 78.619 7.6105C82.2076 7.6105 83.9657 10.3737 84.5347 11.8654L84.845 12.6264L75.5992 16.3307C76.3025 17.6723 77.3988 18.3531 78.9499 18.3531C80.5013 18.3531 81.5768 17.6122 82.3524 16.5009ZM75.1028 14.0883L81.2769 11.6052C80.9356 10.7743 79.9223 10.1837 78.712 10.1837C77.1712 10.1837 75.0304 11.5053 75.1028 14.0883Z" fill="#FF302F"/>
<path d="M67.6359 0.792522H70.6143V20.3756H67.6359V0.792522Z" fill="#20B15A"/>
<path d="M62.9407 8.13106H65.8158V20.025C65.8158 24.9607 62.8062 26.9931 59.2485 26.9931C55.8978 26.9931 53.8812 24.8106 53.1262 23.0386L55.7633 21.9772C56.239 23.0685 57.387 24.3601 59.2485 24.3601C61.534 24.3601 62.9407 22.9885 62.9407 20.4255V19.4645H62.8373C62.1546 20.2653 60.8516 20.9861 59.1969 20.9861C55.7426 20.9861 52.5778 18.0727 52.5778 14.3184C52.5778 10.5439 55.7426 7.60054 59.1969 7.60054C60.8413 7.60054 62.1546 8.31138 62.8373 9.09229H62.9407V8.13106ZM63.1474 14.3184C63.1474 11.9556 61.5238 10.2335 59.4554 10.2335C57.3662 10.2335 55.6081 11.9556 55.6081 14.3184C55.6081 16.651 57.3662 18.343 59.4554 18.343C61.5239 18.3531 63.1474 16.651 63.1474 14.3184Z" fill="#3686F7"/>
<path d="M36.2273 14.2683C36.2273 18.1228 33.1248 20.9561 29.3189 20.9561C25.5131 20.9561 22.4105 18.1129 22.4105 14.2683C22.4105 10.3938 25.5131 7.57049 29.3189 7.57049C33.1248 7.57049 36.2273 10.3938 36.2273 14.2683ZM33.2075 14.2683C33.2075 11.8656 31.4079 10.2134 29.3189 10.2134C27.2299 10.2134 25.4303 11.8656 25.4303 14.2683C25.4303 16.651 27.2299 18.3231 29.3189 18.3231C31.408 18.3231 33.2075 16.651 33.2075 14.2683Z" fill="#FF302F"/>
<path d="M51.3163 14.2983C51.3163 18.1529 48.2136 20.9861 44.4079 20.9861C40.602 20.9861 37.4995 18.1527 37.4995 14.2983C37.4995 10.4238 40.602 7.6105 44.4079 7.6105C48.2136 7.6105 51.3163 10.4138 51.3163 14.2983ZM48.286 14.2983C48.286 11.8956 46.4866 10.2435 44.3974 10.2435C42.3084 10.2435 40.5088 11.8956 40.5088 14.2983C40.5088 16.6811 42.3084 18.3531 44.3974 18.3531C46.4968 18.3531 48.286 16.6711 48.286 14.2983Z" fill="#FFBA40"/>
<path d="M11.055 18.0528C6.72166 18.0528 3.32963 14.6688 3.32963 10.4738C3.32963 6.27899 6.72166 2.89499 11.055 2.89499C13.3923 2.89499 15.0986 3.78599 16.3604 4.92738L18.4392 2.91508C16.6811 1.28318 14.3335 0.0415039 11.055 0.0415039C5.11878 0.0416646 0.123535 4.72729 0.123535 10.4738C0.123535 16.2206 5.11878 20.9061 11.055 20.9061C14.2611 20.9061 16.6811 19.8849 18.5737 17.9827C20.5179 16.1004 21.1177 13.4573 21.1177 11.3148C21.1177 10.644 21.035 9.95324 20.9419 9.44265H11.055V12.2259H18.0979C17.891 13.968 17.3223 15.1594 16.4845 15.9702C15.471 16.9615 13.8681 18.0528 11.055 18.0528Z" fill="#3686F7"/>
</svg>
