<svg width="28" height="25" viewBox="0 0 28 25" fill="none" xmlns="http://www.w3.org/2000/svg">
<path d="M19.7374 22.4545V20.1818C19.7374 18.9763 19.2585 17.8201 18.406 16.9677C17.5536 16.1153 16.3974 15.6364 15.1919 15.6364H6.101C4.89547 15.6364 3.73931 16.1153 2.88687 16.9677C2.03444 17.8201 1.55554 18.9763 1.55554 20.1818V22.4545M26.5555 22.4545V20.1818C26.5548 19.1747 26.2196 18.1963 25.6025 17.4004C24.9855 16.6044 24.1216 16.0359 23.1464 15.7841M18.601 2.14773C19.5787 2.39807 20.4454 2.96671 21.0642 3.76399C21.6831 4.56127 22.019 5.54185 22.019 6.55114C22.019 7.56042 21.6831 8.541 21.0642 9.33828C20.4454 10.1356 19.5787 10.7042 18.601 10.9545M15.1919 6.54545C15.1919 9.05584 13.1568 11.0909 10.6465 11.0909C8.13607 11.0909 6.101 9.05584 6.101 6.54545C6.101 4.03507 8.13607 2 10.6465 2C13.1568 2 15.1919 4.03507 15.1919 6.54545Z" stroke="#727272" stroke-width="2" stroke-linecap="round" stroke-linejoin="round"/>
</svg>
