<svg width="106" height="23" viewBox="0 0 106 23" fill="none" xmlns="http://www.w3.org/2000/svg">
<path d="M106 10.3393V8.45647H103.685V5.52962L101.39 6.23885V8.45647H97.9581V7.22116C97.9581 6.64595 98.0854 6.20561 98.3365 5.91225C98.5858 5.62204 98.9423 5.47463 99.3969 5.47463C99.7241 5.47463 100.062 5.55241 100.403 5.70567L100.488 5.74415V3.76155L100.448 3.74691C100.13 3.63128 99.6982 3.57336 99.1626 3.57336C98.4873 3.57336 97.8738 3.72161 97.3386 4.0158C96.8113 4.30222 96.3768 4.73603 96.0871 5.26533C95.7932 5.79935 95.6441 6.41596 95.6441 7.09843V8.45668H94.0322V10.3395H95.6441V18.271H97.9581V10.3393H101.39V15.3797C101.39 17.4555 102.359 18.5077 104.272 18.5077C104.602 18.5057 104.931 18.4687 105.254 18.3973C105.598 18.3226 105.832 18.248 105.97 18.1683L106 18.1501V16.2499L105.906 16.3129C105.78 16.3975 105.624 16.4665 105.441 16.5178C105.256 16.57 105.103 16.5964 104.983 16.5964C104.535 16.5964 104.204 16.4745 103.998 16.2338C103.791 15.9913 103.685 15.5666 103.685 14.9728V10.3393H106ZM88.8644 16.5966C88.0245 16.5966 87.3624 16.3152 86.8956 15.7613C86.4262 15.2043 86.1881 14.4105 86.1881 13.4017C86.1881 12.361 86.4262 11.5466 86.896 10.9798C87.3629 10.4169 88.0187 10.1311 88.8456 10.1311C89.6479 10.1311 90.2865 10.4039 90.7441 10.9428C91.2039 11.4841 91.4372 12.292 91.4372 13.3448C91.4372 14.4105 91.2178 15.2293 90.7851 15.777C90.3555 16.3206 89.7093 16.5966 88.8644 16.5966ZM88.9675 8.21999C87.3651 8.21999 86.0923 8.69421 85.1851 9.62947C84.2781 10.5649 83.8183 11.8592 83.8183 13.4772C83.8183 15.0138 84.2671 16.2497 85.1524 17.1503C86.0376 18.051 87.2426 18.5073 88.733 18.5073C90.2863 18.5073 91.5337 18.0266 92.4409 17.0783C93.3477 16.1312 93.8073 14.849 93.8073 13.2687C93.8073 11.7083 93.3761 10.4631 92.5254 9.56863C91.6741 8.67372 90.4768 8.21999 88.9675 8.21999ZM80.0871 8.21999C78.9971 8.21999 78.0955 8.50164 77.4067 9.05677C76.714 9.61525 76.3624 10.3479 76.3624 11.2342C76.3624 11.6949 76.4382 12.1041 76.5877 12.4512C76.7378 12.7995 76.9703 13.106 77.2792 13.3634C77.5856 13.6187 78.0586 13.8861 78.6857 14.158C79.2126 14.3771 79.6058 14.5626 79.8555 14.7085C80.0996 14.8517 80.2729 14.9956 80.3706 15.1357C80.4656 15.2726 80.5138 15.4604 80.5138 15.6919C80.5138 16.3513 80.025 16.6721 79.0191 16.6721C78.6458 16.6721 78.2201 16.5935 77.7539 16.4383C77.291 16.2854 76.8541 16.0617 76.4585 15.7749L76.3624 15.7054V17.9553L76.3976 17.972C76.7252 18.1246 77.138 18.2532 77.6245 18.3546C78.1102 18.4558 78.5512 18.5075 78.9346 18.5075C80.1174 18.5075 81.0699 18.2246 81.7647 17.6661C82.4645 17.1036 82.8189 16.354 82.8189 15.4368C82.8189 14.7754 82.628 14.2079 82.2517 13.7504C81.8784 13.2967 81.23 12.88 80.3256 12.5118C79.6052 12.2197 79.1435 11.9774 78.9532 11.7913C78.7696 11.6114 78.6764 11.3572 78.6764 11.0354C78.6764 10.7498 78.7915 10.5212 79.0278 10.336C79.2659 10.1499 79.5971 10.0552 80.0124 10.0552C80.3981 10.0552 80.7925 10.1167 81.1848 10.2371C81.5769 10.3577 81.921 10.5194 82.2086 10.7167L82.303 10.782V8.64758L82.2668 8.6319C82.0018 8.5169 81.6519 8.41863 81.2275 8.33917C80.8043 8.26014 80.4207 8.21999 80.0871 8.21999ZM70.3298 16.5966C69.49 16.5966 68.8277 16.3152 68.3611 15.7613C67.8916 15.2043 67.6541 14.4105 67.6541 13.4017C67.6541 12.361 67.8918 11.5466 68.3617 10.9798C68.8282 10.4169 69.4838 10.1311 70.3111 10.1311C71.1134 10.1311 71.7521 10.4039 72.2096 10.9428C72.6694 11.4841 72.9027 12.292 72.9027 13.3448C72.9027 14.4105 72.6833 15.2293 72.2506 15.777C71.8208 16.3206 71.1749 16.5966 70.3298 16.5966ZM70.4331 8.21999C68.8302 8.21999 67.5574 8.69421 66.6506 9.62947C65.7438 10.5649 65.2836 11.8592 65.2836 13.4772C65.2836 15.0144 65.7328 16.2497 66.6179 17.1503C67.5032 18.051 68.7079 18.5073 70.1987 18.5073C71.7514 18.5073 72.9994 18.0266 73.9066 17.0783C74.8132 16.1312 75.273 14.849 75.273 13.2687C75.273 11.7083 74.8416 10.4631 73.9907 9.56863C73.1392 8.67372 71.9421 8.21999 70.4331 8.21999ZM61.7709 10.1562V8.45647H59.4851V18.2706H61.7707V13.2501C61.7707 12.3964 61.9624 11.6951 62.3406 11.1655C62.7139 10.6421 63.2116 10.3768 63.8188 10.3768C64.0248 10.3768 64.2559 10.4111 64.5062 10.479C64.754 10.5463 64.9335 10.6195 65.0393 10.6965L65.1353 10.7669V8.43974L65.0981 8.42365C64.8855 8.33227 64.5842 8.28627 64.2033 8.28627C63.6288 8.28627 63.1147 8.47257 62.6746 8.83953C62.288 9.16216 62.0086 9.60459 61.7951 10.1562H61.7709ZM55.3916 8.21999C54.343 8.21999 53.4074 8.44727 52.6118 8.89494C51.8148 9.34344 51.198 9.9843 50.7786 10.7987C50.361 11.6114 50.149 12.5607 50.149 13.6193C50.149 14.5465 50.3546 15.3975 50.7608 16.1473C51.1674 16.8985 51.7429 17.4863 52.4712 17.894C53.1988 18.3011 54.0395 18.5075 54.9701 18.5075C56.0564 18.5075 56.9839 18.2881 57.7278 17.8557L57.7576 17.8382V15.7232L57.6617 15.7941C57.3196 16.0445 56.9427 16.2426 56.5433 16.3821C56.1392 16.5245 55.7711 16.5964 55.4482 16.5964C54.5511 16.5964 53.8312 16.3131 53.3085 15.7544C52.7847 15.1946 52.5191 14.4091 52.5191 13.4203C52.5191 12.4254 52.7961 11.6196 53.3418 11.0247C53.8861 10.432 54.6074 10.1313 55.4858 10.1313C56.2371 10.1313 56.9692 10.3883 57.6617 10.8957L57.7576 10.966V8.73749L57.7267 8.71993C57.4659 8.57252 57.1106 8.45083 56.6692 8.35862C56.2299 8.26662 55.8001 8.21999 55.3916 8.21999ZM48.5747 8.45647H46.2887V18.2706H48.5747V8.45647ZM47.4551 4.2757C47.0789 4.2757 46.7508 4.40513 46.4812 4.66126C46.2104 4.91845 46.0729 5.24212 46.0729 5.62392C46.0729 5.99986 46.2088 6.31747 46.4767 6.56775C46.7431 6.8172 47.0723 6.9437 47.4551 6.9437C47.8377 6.9437 48.1681 6.8172 48.4377 6.56817C48.7089 6.31747 48.8465 5.99986 48.8465 5.62392C48.8465 5.2555 48.7126 4.93496 48.4488 4.67172C48.1853 4.40889 47.8507 4.2757 47.4551 4.2757ZM41.7518 7.7326V18.2704H44.0846V4.57616H40.856L36.752 14.7478L32.7695 4.57616H29.4094V18.2706H31.6017V7.73155H31.677L35.8825 18.2706H37.5366L41.6764 7.73239L41.7518 7.7326Z" fill="#706D6E"/>
<path d="M10.753 10.86H0V0H10.753V10.86Z" fill="#F1511B"/>
<path d="M22.6258 10.86H11.8728V0H22.6258V10.86Z" fill="#80CC28"/>
<path d="M10.7528 22.8551H0V11.9951H10.7528V22.8551Z" fill="#00ADEF"/>
<path d="M22.6258 22.8551H11.8728V11.9951H22.6258V22.8551Z" fill="#FBBC09"/>
</svg>
