<svg width="28" height="26" viewBox="0 0 28 26" fill="none" xmlns="http://www.w3.org/2000/svg">
<path d="M22 3.5V5H23C24.3261 5 25.5979 5.52678 26.5355 6.46447C27.4732 7.40215 28 8.67392 28 10V17.5C28 18.4283 27.6313 19.3185 26.9749 19.9749C26.3185 20.6313 25.4283 21 24.5 21H23V22.5C23 23.4283 22.6313 24.3185 21.9749 24.9749C21.3185 25.6313 20.4283 26 19.5 26H8.5C7.57174 26 6.6815 25.6313 6.02513 24.9749C5.36875 24.3185 5 23.4283 5 22.5V21H3.5C2.57174 21 1.6815 20.6313 1.02513 19.9749C0.368749 19.3185 0 18.4283 0 17.5V10C0 8.67392 0.526784 7.40215 1.46447 6.46447C2.40215 5.52678 3.67392 5 5 5H6V3.5C6 2.57174 6.36875 1.6815 7.02513 1.02513C7.6815 0.368749 8.57174 0 9.5 0H18.5C19.4283 0 20.3185 0.368749 20.9749 1.02513C21.6313 1.6815 22 2.57174 22 3.5ZM8 3.5V5H20V3.5C20 3.10218 19.842 2.72064 19.5607 2.43934C19.2794 2.15804 18.8978 2 18.5 2H9.5C9.10218 2 8.72064 2.15804 8.43934 2.43934C8.15804 2.72064 8 3.10218 8 3.5ZM7 22.5C7 22.8978 7.15804 23.2794 7.43934 23.5607C7.72064 23.842 8.10218 24 8.5 24H19.5C19.8978 24 20.2794 23.842 20.5607 23.5607C20.842 23.2794 21 22.8978 21 22.5V16.5C21 16.1022 20.842 15.7206 20.5607 15.4393C20.2794 15.158 19.8978 15 19.5 15H8.5C8.10218 15 7.72064 15.158 7.43934 15.4393C7.15804 15.7206 7 16.1022 7 16.5V22.5ZM23 19H24.5C24.8978 19 25.2794 18.842 25.5607 18.5607C25.842 18.2794 26 17.8978 26 17.5V10C26 9.20435 25.6839 8.44129 25.1213 7.87868C24.5587 7.31607 23.7956 7 23 7H5C4.20435 7 3.44129 7.31607 2.87868 7.87868C2.31607 8.44129 2 9.20435 2 10V17.5C2 17.8978 2.15804 18.2794 2.43934 18.5607C2.72064 18.842 3.10218 19 3.5 19H5V16.5C5 15.5717 5.36875 14.6815 6.02513 14.0251C6.6815 13.3687 7.57174 13 8.5 13H19.5C20.4283 13 21.3185 13.3687 21.9749 14.0251C22.6313 14.6815 23 15.5717 23 16.5V19Z" fill="black"/>
</svg>
