<svg width="31" height="30" viewBox="0 0 31 30" fill="none" xmlns="http://www.w3.org/2000/svg">
<path d="M18.2611 24.0313H16.2924C15.9444 24.0309 15.6107 23.8925 15.3647 23.6464C15.1186 23.4004 14.9802 23.0667 14.9799 22.7188V19.4375H16.2924V22.7188H18.2611V19.4375H19.5736V16.8125C19.5734 16.6385 19.5042 16.4717 19.3812 16.3487C19.2582 16.2256 19.0914 16.1564 18.9174 16.1563H13.1949L11.8824 12.2188H7.76111C7.58711 12.2189 7.42029 12.2881 7.29726 12.4112C7.17423 12.5342 7.10503 12.701 7.10486 12.875V16.8125H8.41736V22.7188H11.0424V18.125H12.3549V22.7188C12.3545 23.0667 12.2161 23.4004 11.9701 23.6464C11.724 23.8925 11.3903 24.0309 11.0424 24.0313H8.41736C8.06937 24.0309 7.73573 23.8925 7.48966 23.6464C7.2436 23.4004 7.10521 23.0667 7.10486 22.7188V18.125C6.75687 18.1247 6.42323 17.9863 6.17716 17.7402C5.9311 17.4941 5.79271 17.1605 5.79236 16.8125V12.875C5.79288 12.353 6.00047 11.8526 6.36957 11.4835C6.73867 11.1144 7.23912 10.9068 7.76111 10.9063H11.8824C12.1578 10.9061 12.4263 10.9926 12.6497 11.1537C12.8732 11.3147 13.0403 11.542 13.1273 11.8033L14.1399 14.8438H18.9174C19.4393 14.8443 19.9398 15.0519 20.3089 15.421C20.678 15.7901 20.8856 16.2905 20.8861 16.8125V19.4375C20.8858 19.7855 20.7474 20.1191 20.5013 20.3652C20.2552 20.6113 19.9216 20.7497 19.5736 20.75V22.7188C19.5733 23.0667 19.4349 23.4004 19.1888 23.6464C18.9427 23.8925 18.6091 24.0309 18.2611 24.0313ZM23.5111 24.0313H22.1986V16.8125H24.1674V12.875C24.1672 12.701 24.098 12.5342 23.975 12.4112C23.8519 12.2881 23.6851 12.2189 23.5111 12.2188H20.8861V10.9063H23.5111C24.0331 10.9068 24.5336 11.1144 24.9026 11.4835C25.2717 11.8526 25.4793 12.353 25.4799 12.875V16.8125C25.4795 17.1605 25.3411 17.4941 25.0951 17.7402C24.849 17.9863 24.5153 18.1247 24.1674 18.125H23.5111V24.0313ZM9.72986 10.25C9.21068 10.25 8.70317 10.096 8.27149 9.80761C7.83981 9.51917 7.50335 9.1092 7.30467 8.62955C7.10599 8.14989 7.05401 7.62209 7.1553 7.11289C7.25658 6.60369 7.50659 6.13596 7.8737 5.76885C8.24082 5.40173 8.70855 5.15173 9.21775 5.05044C9.72695 4.94915 10.2547 5.00114 10.7344 5.19982C11.2141 5.3985 11.624 5.73495 11.9125 6.16663C12.2009 6.59831 12.3549 7.10583 12.3549 7.625C12.354 8.32093 12.0771 8.9881 11.5851 9.4802C11.093 9.97229 10.4258 10.2491 9.72986 10.25ZM9.72986 6.3125C9.47027 6.3125 9.21651 6.38948 9.00067 6.5337C8.78483 6.67792 8.61661 6.8829 8.51727 7.12273C8.41793 7.36256 8.39193 7.62646 8.44258 7.88106C8.49322 8.13566 8.61822 8.36952 8.80178 8.55308C8.98534 8.73664 9.2192 8.86164 9.4738 8.91228C9.7284 8.96293 9.9923 8.93693 10.2321 8.83759C10.472 8.73825 10.6769 8.57003 10.8212 8.35419C10.9654 8.13835 11.0424 7.88459 11.0424 7.625C11.042 7.27701 10.9036 6.94337 10.6576 6.69731C10.4115 6.45124 10.0778 6.31285 9.72986 6.3125ZM21.5424 10.25C21.0232 10.25 20.5157 10.096 20.084 9.80761C19.6523 9.51917 19.3159 9.1092 19.1172 8.62955C18.9185 8.14989 18.8665 7.62209 18.9678 7.11289C19.0691 6.60369 19.3191 6.13596 19.6862 5.76885C20.0533 5.40173 20.521 5.15173 21.0302 5.05044C21.5394 4.94915 22.0672 5.00114 22.5469 5.19982C23.0266 5.3985 23.4365 5.73495 23.725 6.16663C24.0134 6.59831 24.1674 7.10583 24.1674 7.625C24.1665 8.32093 23.8896 8.9881 23.3976 9.4802C22.9055 9.97229 22.2383 10.2491 21.5424 10.25ZM21.5424 6.3125C21.2828 6.3125 21.029 6.38948 20.8132 6.5337C20.5973 6.67792 20.4291 6.8829 20.3298 7.12273C20.2304 7.36256 20.2044 7.62646 20.2551 7.88106C20.3057 8.13566 20.4307 8.36952 20.6143 8.55308C20.7978 8.73664 21.0317 8.86164 21.2863 8.91228C21.5409 8.96293 21.8048 8.93693 22.0446 8.83759C22.2845 8.73825 22.4894 8.57003 22.6337 8.35419C22.7779 8.13835 22.8549 7.88459 22.8549 7.625C22.8545 7.27701 22.7161 6.94337 22.4701 6.69731C22.224 6.45124 21.8903 6.31285 21.5424 6.3125Z" fill="#687684"/>
<path d="M17.2767 14.1875C16.8225 14.1875 16.3784 14.0528 16.0007 13.8004C15.6229 13.548 15.3285 13.1893 15.1547 12.7696C14.9809 12.3499 14.9354 11.8881 15.024 11.4425C15.1126 10.997 15.3314 10.5877 15.6526 10.2665C15.9738 9.94527 16.3831 9.72651 16.8286 9.63788C17.2742 9.54926 17.736 9.59475 18.1557 9.76859C18.5754 9.94243 18.9341 10.2368 19.1865 10.6146C19.4389 10.9923 19.5736 11.4363 19.5736 11.8906C19.5729 12.4996 19.3307 13.0834 18.9001 13.514C18.4695 13.9446 17.8857 14.1868 17.2767 14.1875ZM17.2767 10.9063C17.082 10.9063 16.8917 10.964 16.7298 11.0721C16.568 11.1803 16.4418 11.3341 16.3673 11.5139C16.2928 11.6938 16.2733 11.8917 16.3113 12.0827C16.3493 12.2736 16.443 12.449 16.5807 12.5867C16.7183 12.7244 16.8937 12.8181 17.0847 12.8561C17.2756 12.8941 17.4736 12.8746 17.6534 12.8001C17.8333 12.7256 17.987 12.5994 18.0952 12.4375C18.2034 12.2756 18.2611 12.0853 18.2611 11.8906C18.2608 11.6297 18.1569 11.3795 17.9724 11.195C17.7879 11.0104 17.5377 10.9066 17.2767 10.9063Z" fill="#687684"/>
</svg>
