<svg width="22" height="22" viewBox="0 0 22 22" fill="none" xmlns="http://www.w3.org/2000/svg">
<path d="M20.0503 13.2379L19.9979 12.7172L19.9822 12.7183L19.9644 12.7214L20.0503 13.2379ZM20.0503 13.2379L20.1027 13.7597L20.1205 13.7576L20.1372 13.7545L20.0503 13.2379ZM15.8177 18.9815L16.1498 18.5761L16.1446 18.5729L15.8177 18.9815ZM15.8177 18.9815L15.4856 19.387L15.4908 19.3912L15.8177 18.9815ZM6.18334 18.9815L5.85123 18.5771L5.8439 18.5834L5.83552 18.5907L6.18334 18.9815ZM6.18334 18.9815L6.51545 19.388L6.52383 19.3807L6.53117 19.3744L6.18334 18.9815ZM1.94971 8.76207V8.23821H1.92457L1.89838 8.24031L1.94971 8.76207ZM1.94971 8.76207V9.28593H1.9759L2.0021 9.28279L1.94971 8.76207ZM13.758 1.89637C13.7423 1.7064 13.7203 1.51701 13.692 1.32851C13.668 1.16171 13.6178 0.999758 13.5432 0.848652L12.6118 1.32956C12.6223 1.35051 12.6401 1.39242 12.6579 1.50138C12.6778 1.61663 12.6925 1.76645 12.7166 2.0001L13.758 1.89637ZM13.9633 3.15678C13.9508 3.14106 13.913 3.07715 13.8722 2.85294C13.8234 2.53549 13.7867 2.21644 13.7601 1.89637L12.7166 2.0001C12.7585 2.42023 12.7931 2.76807 12.8413 3.03838C12.8884 3.30241 12.9618 3.57167 13.1304 3.79274L13.9633 3.15678ZM14.4494 3.35794C14.3579 3.37026 14.2647 3.35814 14.1793 3.32281C14.0939 3.28748 14.0194 3.2302 13.9633 3.15678L13.1294 3.79169C13.2976 4.01233 13.5213 4.18448 13.7776 4.29066C14.0339 4.39685 14.3138 4.43327 14.5888 4.39623L14.4494 3.35794ZM15.4845 2.61092C15.1441 2.89066 14.9115 3.08029 14.7281 3.20707C14.5406 3.33698 14.4683 3.3548 14.4494 3.35794L14.5888 4.39623C14.8633 4.35956 15.1053 4.22126 15.3263 4.06724C15.5516 3.91009 15.8208 3.69007 16.1488 3.42185L15.4845 2.61092ZM16.3772 2.02314C16.2095 2.07658 16.0681 2.16144 15.934 2.25679C15.8041 2.34899 15.6564 2.47052 15.4845 2.61092L16.1488 3.42185C16.33 3.27307 16.4474 3.17773 16.5416 3.11068C16.5885 3.07295 16.6407 3.04257 16.6967 3.02057L16.3772 2.02314ZM17.4804 2.07763C17.1313 1.92657 16.7394 1.90721 16.3772 2.02314L16.6967 3.02057C16.8172 2.98241 16.9474 2.98911 17.0634 3.03943L17.4804 2.07763ZM18.3101 2.75236C18.153 2.5952 18.0178 2.459 17.8984 2.35422C17.7745 2.24059 17.6334 2.14724 17.4804 2.07763L17.0634 3.03943C17.0854 3.04886 17.1252 3.07086 17.209 3.1442C17.296 3.21964 17.4028 3.32651 17.5694 3.49309L18.3101 2.75236ZM19.2457 3.68797L18.3101 2.75236L17.5694 3.49309L18.505 4.42871L19.2457 3.68797ZM19.9204 4.51776C19.8504 4.36468 19.7567 4.2236 19.6427 4.09972C19.538 3.98028 19.4018 3.84513 19.2457 3.68797L18.505 4.42871C18.6716 4.59529 18.7774 4.70216 18.8549 4.78912C18.9282 4.87294 18.9492 4.91275 18.9586 4.93476L19.9204 4.51776ZM19.9749 5.62101C20.0908 5.25878 20.0714 4.86681 19.9204 4.51776L18.9586 4.93476C19.0086 5.05084 19.0149 5.18108 18.9764 5.30146L19.9749 5.62101ZM19.3871 6.51367C19.5275 6.34184 19.649 6.19411 19.7412 6.0642C19.8355 5.93009 19.9214 5.78865 19.9749 5.62101L18.9764 5.30146C18.9548 5.35736 18.9247 5.40964 18.8874 5.45652C18.7876 5.59054 18.6838 5.72156 18.5762 5.84941L19.3871 6.51367ZM18.6401 7.54881C18.6433 7.52996 18.6611 7.45766 18.791 7.27012C18.9178 7.08677 19.1074 6.85418 19.3871 6.51367L18.5762 5.84941C18.308 6.17735 18.087 6.44661 17.9309 6.67187C17.7768 6.89189 17.6386 7.13496 17.6019 7.40947L18.6401 7.54881ZM18.8413 8.03496C18.7679 7.97886 18.7106 7.90435 18.6752 7.81897C18.6399 7.73359 18.6278 7.64039 18.6401 7.54881L17.6019 7.40947C17.565 7.68428 17.6016 7.96396 17.7077 8.2201C17.8139 8.47624 17.9859 8.69973 18.2064 8.86789L18.8413 8.03496ZM20.1016 8.23926C19.6626 8.19526 19.3651 8.16592 19.1451 8.12611C18.9209 8.08525 18.857 8.04753 18.8413 8.03496L18.2064 8.86789C18.4264 9.03553 18.6957 9.10887 18.9607 9.15706C19.23 9.20526 19.5767 9.24088 19.9979 9.28279L20.1016 8.23926ZM21.1493 8.45509C20.9982 8.3805 20.8362 8.33029 20.6695 8.30631C20.5123 8.28012 20.3216 8.26126 20.1016 8.23926L19.9969 9.28174C20.2315 9.30584 20.3813 9.32051 20.4966 9.34041C20.5559 9.34708 20.6138 9.36262 20.6684 9.38651L21.1493 8.45509ZM21.89 9.27336C21.7501 8.92002 21.487 8.62932 21.1493 8.45509L20.6684 9.38651C20.7811 9.44444 20.8689 9.54121 20.9157 9.65892L21.89 9.27336ZM22 10.3368C22 10.1157 22 9.92399 21.9895 9.76474C21.9825 9.59672 21.9489 9.43088 21.89 9.27336L20.9157 9.65892C20.924 9.68092 20.9366 9.72493 20.9439 9.83494C20.9521 10.0024 20.9549 10.1702 20.9523 10.3378L22 10.3368ZM22 11.6611V10.3368H20.9523V11.6611H22ZM21.89 12.7235C21.9549 12.5601 21.979 12.3966 21.9895 12.2321C22 12.0739 22 11.8822 22 11.6611H20.9523C20.9523 11.8958 20.9523 12.0467 20.9439 12.163C20.9434 12.2227 20.9339 12.2821 20.9157 12.339L21.89 12.7235ZM21.1493 13.5428C21.4872 13.3683 21.7504 13.0772 21.89 12.7235L20.9157 12.339C20.8689 12.4567 20.7811 12.5535 20.6684 12.6114L21.1493 13.5428ZM20.1016 13.7586C20.3216 13.7366 20.5134 13.7167 20.6695 13.6905C20.8318 13.6643 20.9921 13.6235 21.1482 13.5439L20.6684 12.6114C20.6138 12.6353 20.5559 12.6509 20.4966 12.6575C20.3813 12.6774 20.2315 12.6921 19.9979 12.7162L20.1016 13.7586ZM18.8423 13.9629C18.858 13.9504 18.9219 13.9116 19.1461 13.8718C19.3662 13.832 19.6637 13.8016 20.1016 13.7586L19.9979 12.7162C19.5778 12.7581 19.23 12.7916 18.9597 12.8408C18.6957 12.888 18.4274 12.9613 18.2064 13.129L18.8423 13.9629ZM18.6401 14.4491C18.6279 14.3574 18.6402 14.2642 18.6757 14.1788C18.7112 14.0934 18.7687 14.0189 18.8423 13.9629L18.2064 13.129C17.9858 13.2972 17.8136 13.5209 17.7074 13.7772C17.6013 14.0336 17.5648 14.3135 17.6019 14.5884L18.6401 14.4491ZM19.3871 15.4842C19.1798 15.239 18.981 14.9867 18.791 14.7278C18.6611 14.5413 18.6433 14.4679 18.6401 14.4491L17.6029 14.5895C17.6396 14.864 17.7779 15.105 17.9309 15.326C18.088 15.5502 18.308 15.8206 18.5762 16.1474L19.3871 15.4842ZM19.9749 16.3769C19.9208 16.2175 19.842 16.0675 19.7412 15.9327C19.6279 15.7795 19.5098 15.63 19.3871 15.4842L18.5762 16.1474C18.725 16.3297 18.8203 16.446 18.8874 16.5414C18.9246 16.588 18.9546 16.6399 18.9764 16.6954L19.9749 16.3769ZM19.9204 17.4801C20.0714 17.1311 20.0908 16.7391 19.9749 16.3769L18.9764 16.6954C19.0152 16.8161 19.0089 16.9468 18.9586 17.0631L19.9204 17.4801ZM19.2467 18.3089C19.4028 18.1528 19.538 18.0176 19.6427 17.8982C19.7517 17.7735 19.8502 17.6425 19.9204 17.4801L18.9586 17.0631C18.9312 17.1164 18.8959 17.1651 18.8538 17.2077C18.7412 17.3313 18.6248 17.4515 18.505 17.5681L19.2467 18.3089ZM18.3101 19.2455L19.2467 18.3089L18.505 17.5681L17.5694 18.5048L18.3101 19.2455ZM17.4804 19.9192C17.6417 19.849 17.7737 19.7516 17.8984 19.6426C18.0178 19.5379 18.153 19.4017 18.3101 19.2445L17.5694 18.5048C17.4028 18.6714 17.296 18.7772 17.209 18.8537C17.166 18.8958 17.1169 18.9311 17.0634 18.9585L17.4804 19.9192ZM16.3772 19.9748C16.7395 20.0904 17.1315 20.0706 17.4804 19.9192L17.0634 18.9585C16.9473 19.0084 16.8171 19.0148 16.6967 18.9763L16.3772 19.9748ZM15.4845 19.3859C15.6564 19.5263 15.8041 19.6479 15.934 19.7401C16.0681 19.8354 16.2095 19.9213 16.3772 19.9748L16.6967 18.9763C16.6408 18.9546 16.5885 18.9246 16.5416 18.8872C16.4076 18.7871 16.2766 18.683 16.1488 18.575L15.4845 19.3859ZM14.4494 18.64C14.4683 18.6421 14.5416 18.6609 14.7281 18.7908C14.9115 18.9176 15.1441 19.1072 15.4845 19.3859L16.1488 18.575C15.8208 18.3078 15.5516 18.0868 15.3263 17.9296C15.1063 17.7766 14.8633 17.6383 14.5888 17.6017L14.4494 18.64ZM13.9633 18.8411C14.0194 18.7677 14.0939 18.7104 14.1793 18.6751C14.2647 18.6398 14.3579 18.6276 14.4494 18.64L14.5888 17.6017C14.3141 17.5647 14.0345 17.6011 13.7784 17.7071C13.5222 17.813 13.2987 17.9849 13.1304 18.2052L13.9633 18.8411ZM13.759 20.1015C13.803 19.6625 13.8324 19.365 13.8722 19.145C13.913 18.9208 13.9508 18.8568 13.9633 18.8411L13.1304 18.2052C12.9628 18.4252 12.8895 18.6955 12.8413 18.9595C12.7931 19.2288 12.7575 19.5756 12.7156 19.9968L13.759 20.1015ZM13.5432 21.1493C13.6239 20.9921 13.6637 20.8318 13.6909 20.6694C13.7182 20.5122 13.737 20.3216 13.759 20.1015L12.7156 19.9968C12.701 20.1639 12.6825 20.3306 12.6579 20.4965C12.6513 20.5558 12.6357 20.6137 12.6118 20.6683L13.5432 21.1493ZM12.725 21.89C13.0783 21.7501 13.369 21.487 13.5432 21.1493L12.6118 20.6683C12.5539 20.781 12.4571 20.8688 12.3394 20.9156L12.725 21.89ZM11.6616 22C11.8827 22 12.0744 22 12.2336 21.9895C12.3971 21.979 12.5616 21.9549 12.725 21.89L12.3394 20.9156C12.2825 20.9338 12.2232 20.9434 12.1634 20.9439C12.0482 20.9523 11.8963 20.9523 11.6606 20.9523L11.6616 22ZM10.3373 22H11.6616L11.6606 20.9523H10.3373V22ZM9.27397 21.89C9.43845 21.9549 9.60189 21.979 9.76637 21.9895C9.92457 22 10.1163 22 10.3373 22V20.9523C10.1027 20.9523 9.95181 20.9523 9.83552 20.9439C9.77576 20.9434 9.71642 20.9338 9.65951 20.9156L9.27397 21.89ZM8.45574 21.1493C8.62996 21.487 8.92064 21.7501 9.27397 21.89L9.65951 20.9156C9.54181 20.8688 9.44503 20.781 9.38711 20.6683L8.45574 21.1493ZM8.23992 20.1015C8.26192 20.3216 8.28182 20.5133 8.30697 20.6694C8.33421 20.8318 8.37507 20.9921 8.45574 21.1493L9.38711 20.6683C9.36323 20.6137 9.34769 20.5558 9.34102 20.4965C9.31647 20.3309 9.2969 20.1646 9.28235 19.9978L8.23992 20.1015ZM8.03562 18.8411C8.04819 18.8568 8.08591 18.9208 8.12677 19.145C8.16658 19.365 8.19591 19.6636 8.23992 20.1015L9.28235 19.9978C9.24044 19.5777 9.20587 19.2298 9.15767 18.9595C9.11053 18.6955 9.03719 18.4262 8.86852 18.2052L8.03562 18.8411ZM7.5495 18.64C7.64107 18.6276 7.73427 18.6398 7.81964 18.6751C7.90502 18.7104 7.97953 18.7677 8.03562 18.8411L8.86852 18.2052C8.70037 17.9847 8.47688 17.8137 8.22075 17.7075C7.96462 17.6013 7.68497 17.5648 7.41016 17.6017L7.5495 18.64ZM6.51441 19.387C6.8549 19.1072 7.08748 18.9176 7.27082 18.7908C7.45835 18.6609 7.53064 18.6421 7.5495 18.64L7.41016 17.6017C7.13567 17.6383 6.89366 17.7766 6.6726 17.9307C6.44735 18.0868 6.1781 18.3078 5.85018 18.5761L6.51441 19.387ZM5.62179 19.9748C5.78942 19.9213 5.93085 19.8365 6.06496 19.7411C6.19487 19.6489 6.34259 19.5274 6.51441 19.387L5.85018 18.5761C5.72234 18.6836 5.59132 18.7874 5.45731 18.8872C5.41045 18.9246 5.35816 18.9547 5.30225 18.9763L5.62179 19.9748ZM4.5186 19.9213C4.86762 20.0724 5.25958 20.0907 5.62179 19.9748L5.30225 18.9763C5.18188 19.0148 5.05165 19.0084 4.93557 18.9585L4.5186 19.9213ZM3.68884 19.2455C3.84599 19.4027 3.98114 19.5389 4.10058 19.6437C4.2242 19.7516 4.35726 19.8511 4.5186 19.9213L4.93557 18.9585C4.88199 18.9311 4.83288 18.8958 4.78994 18.8537C4.66639 18.741 4.5462 18.6246 4.42954 18.5048L3.68884 19.2455ZM2.75327 18.3099L3.68884 19.2455L4.42954 18.5048L3.49398 17.5692L2.75327 18.3099ZM2.07858 17.4801C2.14877 17.6415 2.24725 17.7735 2.35621 17.8982C2.46097 18.0176 2.59717 18.1528 2.75327 18.3099L3.49398 17.5692C3.37379 17.4526 3.2571 17.3324 3.14405 17.2088C3.10196 17.1658 3.06664 17.1167 3.03929 17.0631L2.07858 17.4801ZM2.0241 16.3769C1.90817 16.7391 1.92753 17.1311 2.07858 17.4801L3.03929 17.0631C2.98897 16.9472 2.98332 16.817 3.02148 16.6964L2.0241 16.3769ZM2.61184 15.4842C2.47145 15.6561 2.34992 15.8038 2.25773 15.9337C2.15707 16.0683 2.07823 16.2178 2.0241 16.3769L3.02148 16.6964C3.04348 16.6405 3.07386 16.5882 3.11158 16.5414C3.17863 16.4471 3.27397 16.3297 3.42273 16.1485L2.61184 15.4842ZM3.35883 14.4491C3.35568 14.4679 3.33787 14.5402 3.20796 14.7278C3.08015 14.9111 2.89157 15.1437 2.61184 15.4842L3.42273 16.1485C3.69094 15.8206 3.912 15.5513 4.0681 15.326C4.22211 15.106 4.3604 14.8629 4.39707 14.5884L3.35883 14.4491ZM3.15767 13.9629C3.2311 14.019 3.28838 14.0936 3.3237 14.1789C3.35903 14.2643 3.37115 14.3575 3.35883 14.4491L4.39707 14.5884C4.43391 14.3136 4.3974 14.0339 4.29123 13.7778C4.18506 13.5217 4.01302 13.2982 3.79256 13.13L3.15767 13.9629ZM1.89733 13.7597C2.3363 13.8026 2.63384 13.832 2.85385 13.8718C3.07805 13.9127 3.14196 13.9504 3.15767 13.9629L3.79256 13.129C3.57255 12.9613 3.3033 12.888 3.03824 12.8408C2.76899 12.7926 2.42221 12.757 2.00105 12.7151L1.89733 13.7597ZM0.84966 13.5428C1.00681 13.6235 1.1671 13.6633 1.32949 13.6905C1.48664 13.7178 1.67627 13.7377 1.89733 13.7597L2.0021 12.7162C1.83496 12.7016 1.66831 12.6821 1.50236 12.6575C1.4431 12.6508 1.38518 12.6353 1.33054 12.6114L0.84966 13.5428ZM0.108958 12.7235C0.248598 13.0772 0.511764 13.3683 0.84966 13.5428L1.33054 12.6114C1.2179 12.5535 1.13007 12.4567 1.08329 12.339L0.108958 12.7235ZM0 11.6632C0 11.8843 -1.00821e-08 12.076 0.0104767 12.2353C0.017257 12.403 0.050859 12.5685 0.110005 12.7256L1.08434 12.3411C1.06612 12.2842 1.05659 12.2248 1.05605 12.1651C1.04826 11.9975 1.04547 11.8298 1.04767 11.6622L0 11.6632ZM0 10.3389V11.6632H1.04767V10.3389H0ZM0.110005 9.27545C0.0510877 9.43332 0.0174969 9.59952 0.0104767 9.76788C-1.00821e-08 9.92609 0 10.1178 0 10.3389H1.04767C1.04767 10.1042 1.04767 9.95333 1.05605 9.83703C1.05656 9.77727 1.06609 9.71793 1.08434 9.66101L0.110005 9.27545ZM0.850707 8.45718C0.513001 8.63141 0.249859 8.92211 0.110005 9.27545L1.08434 9.66101C1.13111 9.54331 1.21895 9.44653 1.33159 9.38861L0.850707 8.45718ZM1.89838 8.24031C1.67837 8.26231 1.48664 8.28326 1.33054 8.30841C1.16375 8.33239 1.00181 8.3826 0.850707 8.45718L1.33159 9.38861C1.35254 9.37813 1.39445 9.36032 1.5034 9.34251C1.61865 9.3226 1.76847 9.30793 2.0021 9.28384L1.89838 8.24031ZM3.15872 8.03705C3.14301 8.04962 3.0791 8.08734 2.8549 8.1282C2.63489 8.16802 2.33735 8.1963 1.89838 8.24031L2.0021 9.28384C2.42221 9.24193 2.77108 9.20735 3.04034 9.15916C3.3054 9.11201 3.57465 9.03867 3.79466 8.86999L3.15872 8.03705ZM3.35987 7.55091C3.37219 7.64248 3.36008 7.73569 3.32475 7.82106C3.28942 7.90644 3.23214 7.98096 3.15872 8.03705L3.79466 8.86999C4.01492 8.70171 4.18676 8.47816 4.29274 8.22203C4.39872 7.96589 4.43508 7.68524 4.39811 7.41052L3.35987 7.55091ZM2.61289 6.51472C2.89261 6.85627 3.08224 7.08887 3.21006 7.27222C3.33997 7.45976 3.35673 7.53205 3.35987 7.55091L4.39811 7.41052C4.36145 7.13601 4.22315 6.89504 4.06915 6.67397C3.91304 6.44871 3.69199 6.17945 3.42378 5.85151L2.61289 6.51472ZM2.02514 5.62206C2.07753 5.78969 2.16344 5.93218 2.25877 6.06629C2.35097 6.19516 2.4725 6.34394 2.61289 6.51472L3.42378 5.85151C3.31618 5.72331 3.21241 5.59194 3.11262 5.45757C3.075 5.41107 3.04462 5.35914 3.02253 5.30355L2.02514 5.62206ZM2.07962 4.51986C1.92883 4.86859 1.90948 5.26015 2.02514 5.62206L3.02253 5.30355C2.98437 5.18305 2.99106 5.05281 3.04138 4.93685L2.07962 4.51986ZM2.75432 3.69007C2.59717 3.84618 2.46097 3.98133 2.35621 4.10182C2.24259 4.22574 2.14925 4.36683 2.07962 4.51986L3.04138 4.93685C3.06881 4.88364 3.10413 4.83385 3.14615 4.79122C3.25838 4.66722 3.37474 4.54701 3.49502 4.4308L2.75432 3.69007ZM3.68989 2.75341L2.75432 3.69007L3.49502 4.4308L4.43059 3.49414L3.68989 2.75341ZM4.51964 2.07972C4.36666 2.14943 4.2256 2.24277 4.10162 2.35632C3.98219 2.46109 3.84599 2.59625 3.68989 2.75341L4.43059 3.49414C4.59717 3.3286 4.70403 3.22174 4.79099 3.14525C4.8748 3.07191 4.91462 3.05096 4.93662 3.04048L4.51964 2.07972ZM5.62284 2.02419C5.2605 1.90859 4.86854 1.92832 4.51964 2.07972L4.93662 3.04048C5.05257 2.99016 5.1828 2.98451 5.3033 3.02267L5.62284 2.02419ZM6.51545 2.61301C6.34364 2.47262 6.19591 2.35108 6.066 2.25888C5.93156 2.15781 5.78199 2.07861 5.62284 2.02419L5.3033 3.02267C5.35919 3.04435 5.41147 3.07437 5.45835 3.11172C5.55265 3.17983 5.66998 3.27517 5.85228 3.42394L6.51545 2.61301ZM7.55055 3.36003C7.53169 3.35689 7.4594 3.33908 7.27187 3.20916C7.01294 3.01886 6.76065 2.82072 6.51545 2.61301L5.85228 3.42394C6.17915 3.69216 6.44945 3.91323 6.67365 4.06934C6.89366 4.22231 7.13672 4.36061 7.41121 4.39832L7.55055 3.36003ZM8.03667 3.15782C7.9807 3.23144 7.90624 3.28893 7.82086 3.32444C7.73548 3.35996 7.64221 3.37224 7.55055 3.36003L7.41121 4.39832C7.68608 4.43548 7.9659 4.39817 8.22222 4.29218C8.47855 4.18618 8.70225 4.01423 8.87061 3.79379L8.03667 3.15782ZM8.24096 1.89847C8.19696 2.33641 8.16763 2.63501 8.12782 2.85399C8.08696 3.0782 8.04924 3.14211 8.03667 3.15782L8.87061 3.79379C9.03824 3.57377 9.11158 3.30451 9.15872 3.03943C9.20691 2.77017 9.24254 2.42337 9.28444 2.00219L8.24096 1.89847ZM8.45678 0.850748C8.37611 1.00791 8.33525 1.16821 8.30801 1.3306C8.28182 1.48776 8.26297 1.6774 8.24096 1.89847L9.28339 2.00324C9.29793 1.8361 9.31749 1.66944 9.34206 1.50348C9.34867 1.4442 9.36421 1.38627 9.38816 1.33165L8.45678 0.850748ZM9.27606 0.11001C8.92217 0.249917 8.63106 0.512442 8.45678 0.850748L9.38816 1.33165C9.44608 1.21901 9.54285 1.13117 9.66055 1.08439L9.27606 0.11001ZM10.3384 0C10.1173 0 9.92562 -9.89925e-09 9.76637 0.0104772C9.59867 0.0172578 9.43313 0.0508612 9.27606 0.11001L9.66055 1.08439C9.71746 1.06614 9.7768 1.05661 9.83656 1.0561C9.95181 1.04772 10.1037 1.04772 10.3394 1.04772L10.3384 0ZM11.6627 0H10.3384V1.04772H11.6627V0ZM12.726 0.11001C12.5682 0.0510731 12.402 0.0174803 12.2336 0.0104772C12.0754 -9.89925e-09 11.8837 0 11.6627 0V1.04772C11.8973 1.04772 12.0482 1.04772 12.1645 1.0561C12.2242 1.05695 12.2835 1.06648 12.3405 1.08439L12.726 0.11001ZM13.5443 0.850748C13.3698 0.512836 13.0787 0.249658 12.725 0.11001L12.3405 1.08439C12.4582 1.13117 12.555 1.21901 12.6129 1.33165L13.5443 0.850748ZM14.6674 11C14.6674 11.9726 14.281 12.9053 13.5934 13.593C12.9057 14.2807 11.973 14.667 11.0005 14.667V15.7147C12.2509 15.7147 13.45 15.218 14.3342 14.3338C15.2183 13.4496 15.715 12.2504 15.715 11H14.6674ZM11.0005 7.33298C11.973 7.33298 12.9057 7.71933 13.5934 8.40703C14.281 9.09473 14.6674 10.0274 14.6674 11H15.715C15.715 9.74957 15.2183 8.55036 14.3342 7.66618C13.45 6.78199 12.2509 6.28526 11.0005 6.28526V7.33298ZM7.33368 11C7.33368 10.0274 7.72001 9.09473 8.40768 8.40703C9.09534 7.71933 10.028 7.33298 11.0005 7.33298V6.28526C9.75016 6.28526 8.551 6.78199 7.66686 7.66618C6.78272 8.55036 6.28601 9.74957 6.28601 11H7.33368ZM11.0005 14.667C10.028 14.667 9.09534 14.2807 8.40768 13.593C7.72001 12.9053 7.33368 11.9726 7.33368 11H6.28601C6.28601 12.2504 6.78272 13.4496 7.66686 14.3338C8.551 15.218 9.75016 15.7147 11.0005 15.7147V14.667Z" fill="#115172"/>
</svg>
