<svg width="17" height="11" viewBox="0 0 17 11" fill="none" xmlns="http://www.w3.org/2000/svg">
<path d="M0.374196 0.882399C0.613866 0.637549 0.938885 0.5 1.27778 0.5C1.61667 0.5 1.94169 0.637549 2.18136 0.882399L8.50772 7.34743L14.8341 0.882399C15.0751 0.644488 15.398 0.512844 15.7331 0.515819C16.0682 0.518795 16.3887 0.656153 16.6257 0.898309C16.8626 1.14046 16.997 1.46804 17 1.81049C17.0029 2.15294 16.874 2.48285 16.6412 2.72918L9.4113 10.1176C9.17163 10.3625 8.84661 10.5 8.50772 10.5C8.16882 10.5 7.8438 10.3625 7.60413 10.1176L0.374196 2.72918C0.134599 2.48425 0 2.15211 0 1.80579C0 1.45947 0.134599 1.12732 0.374196 0.882399Z" fill="#8D979C"/>
</svg>
