<svg width="24" height="26" viewBox="0 0 24 26" fill="none" xmlns="http://www.w3.org/2000/svg">
<path d="M18.2 19.6667H20.6C21.2365 19.6667 21.847 19.3857 22.2971 18.8856C22.7472 18.3855 23 17.7072 23 17V11.6667C23 10.9594 22.7472 10.2811 22.2971 9.78105C21.847 9.28095 21.2365 9 20.6 9H3.80002C3.1635 9 2.55306 9.28095 2.10297 9.78105C1.65288 10.2811 1.40002 10.9594 1.40002 11.6667V17C1.40002 17.7072 1.65288 18.3855 2.10297 18.8856C2.55306 19.3857 3.1635 19.6667 3.80002 19.6667H6.20002M18.2 9V3.66667C18.2 2.95942 17.9472 2.28115 17.4971 1.78105C17.047 1.28095 16.4365 1 15.8 1H8.60002C7.9635 1 7.35305 1.28095 6.90297 1.78105C6.45288 2.28115 6.20002 2.95942 6.20002 3.66667V9M6.20008 17.0001C6.20008 16.2928 6.45294 15.6145 6.90303 15.1144C7.35311 14.6144 7.96356 14.3334 8.60008 14.3334H15.8001C16.4366 14.3334 17.047 14.6144 17.4971 15.1144C17.9472 15.6145 18.2001 16.2928 18.2001 17.0001V22.3334C18.2001 23.0406 17.9472 23.7189 17.4971 24.219C17.047 24.7191 16.4366 25.0001 15.8001 25.0001H8.60008C7.96356 25.0001 7.35311 24.7191 6.90303 24.219C6.45294 23.7189 6.20008 23.0406 6.20008 22.3334V17.0001Z" stroke="#687684" stroke-width="2" stroke-linecap="round" stroke-linejoin="round"/>
</svg>
